<mxfile host="Electron" agent="Mozilla/5.0 (Windows NT 10.0; Win64; x64) AppleWebKit/537.36 (KHTML, like Gecko) draw.io/26.0.4 Chrome/128.0.6613.186 Electron/32.2.5 Safari/537.36" version="26.0.4">
  <diagram name="Page-1" id="JlfOTBbMWgPCrJWZQkP_">
    <mxGraphModel dx="989" dy="582" grid="1" gridSize="10" guides="1" tooltips="1" connect="1" arrows="1" fold="1" page="1" pageScale="1" pageWidth="827" pageHeight="1169" math="0" shadow="0">
      <root>
        <mxCell id="0" />
        <mxCell id="1" parent="0" />
        <mxCell id="HVPW4FBtVVKCTswe9-e1-17" style="edgeStyle=orthogonalEdgeStyle;rounded=0;orthogonalLoop=1;jettySize=auto;html=1;exitX=1;exitY=0.25;exitDx=0;exitDy=0;entryX=0;entryY=0.5;entryDx=0;entryDy=0;" edge="1" parent="1" source="HVPW4FBtVVKCTswe9-e1-1" target="HVPW4FBtVVKCTswe9-e1-2">
          <mxGeometry relative="1" as="geometry" />
        </mxCell>
        <mxCell id="HVPW4FBtVVKCTswe9-e1-1" value="MCU" style="rounded=0;whiteSpace=wrap;html=1;" vertex="1" parent="1">
          <mxGeometry x="40" y="160" width="80" height="200" as="geometry" />
        </mxCell>
        <mxCell id="HVPW4FBtVVKCTswe9-e1-24" style="edgeStyle=orthogonalEdgeStyle;rounded=0;orthogonalLoop=1;jettySize=auto;html=1;exitX=1;exitY=0.5;exitDx=0;exitDy=0;entryX=0;entryY=0.5;entryDx=0;entryDy=0;" edge="1" parent="1" source="HVPW4FBtVVKCTswe9-e1-2" target="HVPW4FBtVVKCTswe9-e1-3">
          <mxGeometry relative="1" as="geometry" />
        </mxCell>
        <mxCell id="HVPW4FBtVVKCTswe9-e1-2" value="Laser-Treiber" style="rounded=0;whiteSpace=wrap;html=1;" vertex="1" parent="1">
          <mxGeometry x="220" y="170" width="90" height="80" as="geometry" />
        </mxCell>
        <mxCell id="HVPW4FBtVVKCTswe9-e1-3" value="Laser-Diode" style="rounded=0;whiteSpace=wrap;html=1;" vertex="1" parent="1">
          <mxGeometry x="400" y="185" width="60" height="50" as="geometry" />
        </mxCell>
        <mxCell id="HVPW4FBtVVKCTswe9-e1-4" value="Target" style="rounded=0;whiteSpace=wrap;html=1;horizontal=0;" vertex="1" parent="1">
          <mxGeometry x="610" y="170" width="30" height="200" as="geometry" />
        </mxCell>
        <mxCell id="HVPW4FBtVVKCTswe9-e1-5" value="" style="endArrow=classic;html=1;rounded=0;exitX=1;exitY=0.5;exitDx=0;exitDy=0;dashed=1;dashPattern=12 12;fillColor=#f8cecc;strokeColor=#b85450;" edge="1" parent="1" source="HVPW4FBtVVKCTswe9-e1-3">
          <mxGeometry width="50" height="50" relative="1" as="geometry">
            <mxPoint x="600" y="260" as="sourcePoint" />
            <mxPoint x="610" y="210" as="targetPoint" />
          </mxGeometry>
        </mxCell>
        <mxCell id="HVPW4FBtVVKCTswe9-e1-21" style="edgeStyle=orthogonalEdgeStyle;rounded=0;orthogonalLoop=1;jettySize=auto;html=1;exitX=0;exitY=0.5;exitDx=0;exitDy=0;entryX=1;entryY=0.5;entryDx=0;entryDy=0;" edge="1" parent="1" source="HVPW4FBtVVKCTswe9-e1-6" target="HVPW4FBtVVKCTswe9-e1-7">
          <mxGeometry relative="1" as="geometry" />
        </mxCell>
        <mxCell id="HVPW4FBtVVKCTswe9-e1-6" value="Photo-Diode" style="rounded=0;whiteSpace=wrap;html=1;" vertex="1" parent="1">
          <mxGeometry x="400" y="300" width="40" height="50" as="geometry" />
        </mxCell>
        <mxCell id="HVPW4FBtVVKCTswe9-e1-26" style="edgeStyle=orthogonalEdgeStyle;rounded=0;orthogonalLoop=1;jettySize=auto;html=1;exitX=0;exitY=0.5;exitDx=0;exitDy=0;entryX=1;entryY=0.5;entryDx=0;entryDy=0;" edge="1" parent="1" source="HVPW4FBtVVKCTswe9-e1-7" target="HVPW4FBtVVKCTswe9-e1-8">
          <mxGeometry relative="1" as="geometry" />
        </mxCell>
        <mxCell id="HVPW4FBtVVKCTswe9-e1-7" value="VerstÃ¤rker" style="rounded=0;whiteSpace=wrap;html=1;" vertex="1" parent="1">
          <mxGeometry x="290" y="300" width="70" height="50" as="geometry" />
        </mxCell>
        <mxCell id="HVPW4FBtVVKCTswe9-e1-8" value="Digitalisierung" style="rounded=0;whiteSpace=wrap;html=1;" vertex="1" parent="1">
          <mxGeometry x="170" y="300" width="80" height="50" as="geometry" />
        </mxCell>
        <mxCell id="HVPW4FBtVVKCTswe9-e1-9" value="" style="endArrow=classic;html=1;rounded=0;exitX=0.027;exitY=0.778;exitDx=0;exitDy=0;dashed=1;dashPattern=12 12;fillColor=#f8cecc;strokeColor=#b85450;entryX=1;entryY=0.5;entryDx=0;entryDy=0;exitPerimeter=0;" edge="1" parent="1" source="HVPW4FBtVVKCTswe9-e1-4" target="HVPW4FBtVVKCTswe9-e1-31">
          <mxGeometry width="50" height="50" relative="1" as="geometry">
            <mxPoint x="440" y="420" as="sourcePoint" />
            <mxPoint x="590" y="420" as="targetPoint" />
          </mxGeometry>
        </mxCell>
        <mxCell id="HVPW4FBtVVKCTswe9-e1-11" value="" style="endArrow=none;html=1;rounded=0;entryX=1;entryY=1;entryDx=0;entryDy=0;" edge="1" parent="1" target="HVPW4FBtVVKCTswe9-e1-3">
          <mxGeometry width="50" height="50" relative="1" as="geometry">
            <mxPoint x="460" y="390" as="sourcePoint" />
            <mxPoint x="460" y="350" as="targetPoint" />
          </mxGeometry>
        </mxCell>
        <mxCell id="HVPW4FBtVVKCTswe9-e1-12" value="" style="endArrow=none;html=1;rounded=0;" edge="1" parent="1">
          <mxGeometry width="50" height="50" relative="1" as="geometry">
            <mxPoint x="610" y="390" as="sourcePoint" />
            <mxPoint x="610" y="350" as="targetPoint" />
          </mxGeometry>
        </mxCell>
        <mxCell id="HVPW4FBtVVKCTswe9-e1-18" value="" style="endArrow=classic;html=1;rounded=0;" edge="1" parent="1">
          <mxGeometry width="50" height="50" relative="1" as="geometry">
            <mxPoint x="180" y="210" as="sourcePoint" />
            <mxPoint x="180" y="300" as="targetPoint" />
          </mxGeometry>
        </mxCell>
        <mxCell id="HVPW4FBtVVKCTswe9-e1-20" value="start" style="text;html=1;align=center;verticalAlign=middle;resizable=0;points=[];autosize=1;strokeColor=none;fillColor=none;" vertex="1" parent="1">
          <mxGeometry x="140" y="185" width="50" height="30" as="geometry" />
        </mxCell>
        <mxCell id="HVPW4FBtVVKCTswe9-e1-22" value="I&lt;sub&gt;photo&lt;/sub&gt;" style="text;html=1;align=center;verticalAlign=middle;resizable=0;points=[];autosize=1;strokeColor=none;fillColor=none;" vertex="1" parent="1">
          <mxGeometry x="356" y="298" width="50" height="30" as="geometry" />
        </mxCell>
        <mxCell id="HVPW4FBtVVKCTswe9-e1-23" value="" style="group" vertex="1" connectable="0" parent="1">
          <mxGeometry x="460" y="360" width="150" height="30" as="geometry" />
        </mxCell>
        <mxCell id="HVPW4FBtVVKCTswe9-e1-13" value="" style="endArrow=classic;startArrow=classic;html=1;rounded=0;" edge="1" parent="HVPW4FBtVVKCTswe9-e1-23">
          <mxGeometry width="50" height="50" relative="1" as="geometry">
            <mxPoint y="22" as="sourcePoint" />
            <mxPoint x="150" y="22" as="targetPoint" />
          </mxGeometry>
        </mxCell>
        <mxCell id="HVPW4FBtVVKCTswe9-e1-16" value="strecke, variabel" style="text;html=1;align=center;verticalAlign=middle;resizable=0;points=[];autosize=1;strokeColor=none;fillColor=none;" vertex="1" parent="HVPW4FBtVVKCTswe9-e1-23">
          <mxGeometry x="20" width="110" height="30" as="geometry" />
        </mxCell>
        <mxCell id="HVPW4FBtVVKCTswe9-e1-25" value="Puls" style="text;html=1;align=center;verticalAlign=middle;resizable=0;points=[];autosize=1;strokeColor=none;fillColor=none;" vertex="1" parent="1">
          <mxGeometry x="330" y="185" width="50" height="30" as="geometry" />
        </mxCell>
        <mxCell id="HVPW4FBtVVKCTswe9-e1-27" style="edgeStyle=orthogonalEdgeStyle;rounded=0;orthogonalLoop=1;jettySize=auto;html=1;exitX=0;exitY=0.5;exitDx=0;exitDy=0;entryX=0.984;entryY=0.824;entryDx=0;entryDy=0;entryPerimeter=0;" edge="1" parent="1" source="HVPW4FBtVVKCTswe9-e1-8" target="HVPW4FBtVVKCTswe9-e1-1">
          <mxGeometry relative="1" as="geometry" />
        </mxCell>
        <mxCell id="HVPW4FBtVVKCTswe9-e1-28" value="" style="endArrow=none;html=1;rounded=0;" edge="1" parent="1">
          <mxGeometry width="50" height="50" relative="1" as="geometry">
            <mxPoint x="140" y="330" as="sourcePoint" />
            <mxPoint x="150" y="320" as="targetPoint" />
          </mxGeometry>
        </mxCell>
        <mxCell id="HVPW4FBtVVKCTswe9-e1-29" value="&lt;font style=&quot;font-size: 5px;&quot;&gt;n&lt;/font&gt;" style="text;html=1;align=center;verticalAlign=middle;resizable=0;points=[];autosize=1;strokeColor=none;fillColor=none;" vertex="1" parent="1">
          <mxGeometry x="120" y="320" width="30" height="30" as="geometry" />
        </mxCell>
        <mxCell id="HVPW4FBtVVKCTswe9-e1-30" value="Res." style="text;html=1;align=center;verticalAlign=middle;resizable=0;points=[];autosize=1;strokeColor=none;fillColor=none;" vertex="1" parent="1">
          <mxGeometry x="120" y="290" width="50" height="30" as="geometry" />
        </mxCell>
        <mxCell id="HVPW4FBtVVKCTswe9-e1-31" value="Optik" style="rounded=0;whiteSpace=wrap;html=1;horizontal=0;fillColor=#f5f5f5;fontColor=#333333;strokeColor=#666666;" vertex="1" parent="1">
          <mxGeometry x="440" y="300" width="20" height="50" as="geometry" />
        </mxCell>
        <mxCell id="HVPW4FBtVVKCTswe9-e1-32" value="u&lt;sub&gt;meas&lt;/sub&gt;" style="text;html=1;align=center;verticalAlign=middle;resizable=0;points=[];autosize=1;strokeColor=none;fillColor=none;" vertex="1" parent="1">
          <mxGeometry x="246" y="298" width="50" height="30" as="geometry" />
        </mxCell>
        <mxCell id="HVPW4FBtVVKCTswe9-e1-33" value="&lt;font style=&quot;color: rgb(234, 107, 102);&quot;&gt;Licht&lt;/font&gt;" style="text;html=1;align=center;verticalAlign=middle;resizable=0;points=[];autosize=1;strokeColor=none;fillColor=none;" vertex="1" parent="1">
          <mxGeometry x="505" y="188" width="50" height="30" as="geometry" />
        </mxCell>
      </root>
    </mxGraphModel>
  </diagram>
</mxfile>
